<?xml version="1.0" encoding="UTF-8" standalone="no" ?>
<!DOCTYPE svg PUBLIC "-//W3C//DTD SVG 1.1//EN" "http://www.w3.org/Graphics/SVG/1.1/DTD/svg11.dtd">
<svg xmlns="http://www.w3.org/2000/svg" xmlns:xlink="http://www.w3.org/1999/xlink" version="1.1" width="1102.8855851458384" height="720.9939685999373" viewBox="-303.0849999999999 1047.191031400063 1102.8855851458384 720.9939685999373" xml:space="preserve">
<desc>Created with Fabric.js 4.6.0</desc>
<defs>
</defs>
<g transform="matrix(1 0 0 1 117.13 1527.76)" id="BUzkValSeEvsHX6GLMZPe"  >
<path style="stroke: none; stroke-width: 1; stroke-dasharray: none; stroke-linecap: butt; stroke-dashoffset: 0; stroke-linejoin: miter; stroke-miterlimit: 4; fill: rgb(0,0,0); fill-rule: nonzero; opacity: 1;" vector-effect="non-scaling-stroke"  transform=" translate(-41.24, -239.93)" d="M 0 479.85 L 0 0 L 82.49 0 L 82.49 479.85 z" stroke-linecap="round" />
</g>
<g transform="matrix(1 0 0 1 691.82 1527.76)" id="oYGuu-ogLoghb8ftt8MsP"  >
<path style="stroke: none; stroke-width: 1; stroke-dasharray: none; stroke-linecap: butt; stroke-dashoffset: 0; stroke-linejoin: miter; stroke-miterlimit: 4; fill: rgb(0,0,0); fill-rule: nonzero; opacity: 1;" vector-effect="non-scaling-stroke"  transform=" translate(-41.59, -239.93)" d="M 0 479.85 L 0 0 L 83.18 0 L 83.18 479.85 z" stroke-linecap="round" />
</g>
<g transform="matrix(1 0 0 1 402.49 1527.75)" id="2w0GeaF9JSqWlOI68KOep"  >
<path style="stroke: none; stroke-width: 1; stroke-dasharray: none; stroke-linecap: butt; stroke-dashoffset: 0; stroke-linejoin: miter; stroke-miterlimit: 4; fill: rgb(0,0,0); fill-rule: nonzero; opacity: 1;" vector-effect="non-scaling-stroke"  transform=" translate(-2844.59, -3962.79)" d="M 2680.03 3722.87 L 2680.03 4202.71 L 2759.59 4202.71 L 2759.59 3828.36 L 2719.81 3828.36 L 2940.04 4202.71 L 3009.14 4202.71 L 3009.14 3722.87 L 2930.19 3722.87 L 2930.19 4105.99 L 2980.67 4105.99 L 2759.59 3722.87 z" stroke-linecap="round" />
</g>
<g transform="matrix(1 0 0 1 699.28 1143.5)" id="RZntFFCvXQCjXVYNvQGby"  >
<linearGradient id="SVGID_22" gradientUnits="userSpaceOnUse" gradientTransform="matrix(1 0 0 1 0 0)"  x1="3280.86" y1="3665.88" x2="3480.94" y2="3665.88">
<stop offset="1%" style="stop-color:rgb(251,201,38);stop-opacity: 1"/>
<stop offset="25%" style="stop-color:rgb(255,251,204);stop-opacity: 1"/>
<stop offset="30%" style="stop-color:rgb(248,240,187);stop-opacity: 1"/>
<stop offset="41%" style="stop-color:rgb(231,210,142);stop-opacity: 1"/>
<stop offset="55.00000000000001%" style="stop-color:rgb(204,162,70);stop-opacity: 1"/>
<stop offset="60%" style="stop-color:rgb(195,146,46);stop-opacity: 1"/>
<stop offset="87%" style="stop-color:rgb(238,214,136);stop-opacity: 1"/>
<stop offset="100%" style="stop-color:rgb(255,251,204);stop-opacity: 1"/>
</linearGradient>
<path style="stroke: none; stroke-width: 1; stroke-dasharray: none; stroke-linecap: butt; stroke-dashoffset: 0; stroke-linejoin: miter; stroke-miterlimit: 4; fill: url(#SVGID_22); fill-rule: nonzero; opacity: 1;" vector-effect="non-scaling-stroke"  transform=" translate(-3380.86, -3665.9)" d="M 3444 3621.39 C 3432.2941616095395 3621.8659422842984 3421.0192972314553 3625.9373240944087 3411.71 3633.0499999999997 C 3410.981035955813 3633.6120954345247 3409.987922913036 3633.6877448311097 3409.182229566475 3633.242550394331 C 3408.3765362199138 3632.797355957552 3407.9120606542333 3631.916300456563 3408 3631 C 3410.019678784725 3607.3096050914032 3399.3722975936016 3584.315064354717 3380 3570.53 C 3379.277391052764 3570.010205291574 3378.320410282774 3569.951852805599 3377.54 3570.38 C 3371.99 3573.4500000000003 3357.27 3582.87 3350.79 3601.67 C 3347.8649385207364 3610.2259572303483 3347.055198530066 3619.3629809386302 3348.43 3628.3 C 3348.559606832673 3629.1181248799676 3348.2431909326333 3629.943287189749 3347.5998101430832 3630.4650030223006 C 3346.956429353533 3630.986718854853 3346.083698457934 3631.125832632561 3345.31 3630.8300000000004 C 3336.240088144519 3627.3745850839614 3326.4658827327635 3626.176833086524 3316.83 3627.3400000000006 C 3303.439672202358 3629.1019902642975 3291.0149275830677 3635.2651138693363 3281.5099999999998 3644.8600000000006 C 3280.891414338125 3645.4857437710616 3280.6820340404656 3646.4085680459307 3280.97 3647.2400000000007 C 3287.8185722355115 3666.9366883573225 3303.176169911951 3682.4999845436596 3322.7799999999997 3689.6100000000006 C 3323.5480011303434 3689.8842640595853 3324.114483616319 3690.54315411842 3324.2704681520445 3691.343601078064 C 3324.42645268777 3692.1440480377078 3324.148823532039 3692.9674316472338 3323.54 3693.5100000000007 C 3317.6589762298076 3698.7610510833674 3313.2969074301623 3705.4958366410146 3310.91 3713.0100000000007 C 3305.5099999999998 3730.350000000001 3313.1099999999997 3745.140000000001 3315.5499999999997 3749.290000000001 C 3315.858633845847 3749.828677965442 3316.3761274151652 3750.2158934333934 3316.9799999999996 3750.360000000001 C 3321.7999999999997 3751.550000000001 3339.3299999999995 3754.880000000001 3355.9199999999996 3743.800000000001 C 3364.1578651735185 3738.23590963218 3370.489609209539 3730.2775984953955 3374.0599999999995 3721.000000000001 C 3374.4211134445586 3720.091775418754 3375.3147372616177 3719.5091119433064 3376.291458397483 3719.5450373184185 C 3377.268179533348 3719.5809626935306 3378.116583982911 3720.2277007718885 3378.4099999999994 3721.1600000000008 C 3386.1985628104167 3746.2291178587234 3409.9373636307546 3762.8729974295543 3436.1599999999994 3761.6500000000005 C 3437.054991332857 3761.5968104236804 3437.8366212844894 3761.026220558989 3438.1599999999994 3760.1900000000005 C 3440.6999999999994 3753.6900000000005 3446.9599999999996 3734.3000000000006 3438.3899999999994 3713.0100000000007 C 3434.8664913273637 3704.320797475454 3429.4201717719457 3696.5427830444587 3422.4599999999996 3690.2600000000007 C 3421.7788916493587 3689.6275085945904 3421.543217511817 3688.6483960841742 3421.861916064807 3687.7752493636553 C 3422.180614617796 3686.9021026431365 3422.991599711817 3686.30502075224 3423.9199999999996 3686.2600000000007 C 3432.7999999999997 3685.890000000001 3448.5699999999997 3683.310000000001 3462.18 3670.8600000000006 C 3472.3447942517464 3661.414290033952 3478.9421557611586 3648.752865509733 3480.8599999999997 3635.0100000000007 C 3480.9805162431953 3634.1814379659427 3480.639233372403 3633.3531559424464 3479.97 3632.850000000001 C 3469.621304206253 3625.0715575850436 3456.9410685734715 3621.0316493183855 3444 3621.39 Z M 3401.14 3703.8799999999997 L 3376.37 3685.7 L 3351.44 3703.8799999999997 L 3361.09 3674.4799999999996 L 3336.6400000000003 3656.5299999999997 L 3367 3656.5299999999997 L 3376.31 3628.14 L 3385.62 3656.52 L 3416.45 3656.52 L 3391.5699999999997 3674.67 Z" stroke-linecap="round" />
</g>
<g transform="matrix(1 0 0 1 -144.4 1527.72)" id="UJKIkMF929isrQ7KeTs2U"  >
<path style="stroke: none; stroke-width: 1; stroke-dasharray: none; stroke-linecap: butt; stroke-dashoffset: 0; stroke-linejoin: miter; stroke-miterlimit: 4; fill: rgb(0,0,0); fill-rule: nonzero; opacity: 1;" vector-effect="non-scaling-stroke"  transform=" translate(-2537.18, -4050.11)" d="M 2695.29 4154 C 2695.29 4255.57 2627.96 4290 2565.02 4290 L 2379 4290 L 2379 3810.23 L 2559.29 3810.23 C 2628.98 3810.23 2677.29 3862.14 2677.29 3927.8 C 2677.29 4002.69 2639.29 4028.1400000000003 2625.89 4038.61 C 2638.8199999999997 4045.69 2695.37 4068.46 2695.37 4154.03 M 2433.83 4095.5499999999997 Q 2433.36 4138.94 2432.91 4182.34 C 2442.64 4195.34 2463.1099999999997 4218.71 2497 4232.34 C 2559.38 4257.34 2617.71 4229.55 2634.24 4220.46 C 2636.5371591121757 4219.201585097842 2637.963843058787 4216.789261973061 2637.9599999999996 4214.17 C 2637.9599999999996 4197.17 2635.1799999999994 4157.59 2607.4199999999996 4119.58 C 2578.5199999999995 4079.98 2539.4199999999996 4065.14 2520.3099999999995 4059.83 C 2518.9250042860026 4059.440859522636 2517.9060673557287 4058.262496610584 2517.7209279048648 4056.835833783338 C 2517.535788454001 4055.4091709560917 2518.2202053867977 4054.009762122878 2519.4599999999996 4053.2799999999997 C 2533.6959524176928 4044.7383156128685 2546.799116698307 4034.437212616878 2558.4599999999996 4022.62 C 2604.1299999999997 3976.2799999999997 2614.4099999999994 3919.33 2617.1499999999996 3893.08 C 2617.4333012212414 3890.380130613513 2616.1675161734524 3887.751787960765 2613.8799999999997 3886.29 C 2600.4799999999996 3877.74 2564.3699999999994 3858.14 2516.8799999999997 3864.72 C 2469.8799999999997 3871.24 2441.14 3899.3799999999997 2432.8799999999997 3908.12 L 2431.64 3988.12 L 2465.7599999999998 3980.62 C 2467.2273754876387 3980.289063286974 2468.7461651545173 3980.9026994389237 2469.57181125004 3982.160085002186 C 2470.397457345562 3983.417470565448 2470.35689136147 3985.0550375961775 2469.47 3986.27 L 2430.3799999999997 4040.21 C 2429.4912897908234 4041.4616217599073 2429.4912897908234 4043.1383782400926 2430.3799999999997 4044.39 Q 2440.47 4058.93 2451.3799999999997 4073.8399999999997 Q 2459.2699999999995 4084.5599999999995 2467.1099999999997 4094.8399999999997 C 2468.0166285789965 4096.018008981946 2468.1084772884337 4097.631327264539 2467.341405263035 4098.904622615057 C 2466.574333237636 4100.177917965575 2465.105182138585 4100.850842266318 2463.64 4100.599999999999 C 2453.56 4098.89 2444.75 4097.22 2433.75 4095.55 Z" stroke-linecap="round" />
</g>
</svg>